<svg xmlns="http://www.w3.org/2000/svg" width="24" height="24" viewBox="0 0 24 24" fill="none" stroke="#000000" stroke-width="2" stroke-linecap="round" stroke-linejoin="round">
  <!-- Rock Hand -->
  <path d="M8 13v-2c0-1.1.9-2 2-2h2a2 2 0 012 2v2"/>
  <path d="M15 11v2"/>
  <path d="M12 19c3.866 0 7-3.134 7-7s-3.134-7-7-7-7 3.134-7 7 3.134 7 7 7z"/>
  
  <!-- Paper Hand -->
  <path d="M3 7h6m-6 4h14m-14 4h18"/>
  
  <!-- Scissors -->
  <path d="M21 12c0 1.66-1.34 3-3 3s-3-1.34-3-3 1.34-3 3-3 3 1.34 3 3z"/>
  <path d="M15 12c0 1.66-1.34 3-3 3s-3-1.34-3-3 1.34-3 3-3 3 1.34 3 3z"/>
  <path d="M21 12l-6 6m0-12l6 6"/>
</svg>